<mxfile host="app.diagrams.net" modified="2023-04-30T16:12:54.788Z" agent="Mozilla/5.0 (Windows NT 10.0; Win64; x64) AppleWebKit/537.36 (KHTML, like Gecko) Chrome/112.0.0.0 Safari/537.36" version="21.2.3" etag="fbW80Ks_CERKCSWRmZA9" type="github">
  <diagram name="Page-1" id="h5nciQh3TE7ta7tmnZzR">
    <mxGraphModel>
      <root>
        <mxCell id="0" />
        <mxCell id="1" parent="0" />
      </root>
    </mxGraphModel>
  </diagram>
</mxfile>
